<svg width="267" height="303" xmlns="http://www.w3.org/2000/svg" xmlns:xlink="http://www.w3.org/1999/xlink" overflow="hidden"><defs><filter id="fx0" x="-10%" y="-10%" width="120%" height="120%" filterUnits="userSpaceOnUse" primitiveUnits="userSpaceOnUse"><feComponentTransfer color-interpolation-filters="sRGB"><feFuncR type="discrete" tableValues="0 0"/><feFuncG type="discrete" tableValues="0 0"/><feFuncB type="discrete" tableValues="0 0"/><feFuncA type="linear" slope="0.431373" intercept="0"/></feComponentTransfer><feGaussianBlur stdDeviation="1.593 1.593"/></filter><clipPath id="clip1"><rect x="95" y="127" width="267" height="303"/></clipPath><clipPath id="clip2"><rect x="81" y="75" width="96" height="108"/></clipPath><clipPath id="clip3"><rect x="0" y="0" width="258" height="292"/></clipPath></defs><g clip-path="url(#clip1)" transform="translate(-95 -127)"><path d="M134.5 261C134.5 208.809 176.809 166.5 229 166.5 281.191 166.5 323.5 208.809 323.5 261 323.5 313.191 281.191 355.5 229 355.5 176.809 355.5 134.5 313.191 134.5 261Z" stroke="#0E0A4F" stroke-width="1.33333" stroke-miterlimit="8" fill="#0E0A4F" fill-rule="evenodd"/><g clip-path="url(#clip2)" filter="url(#fx0)" transform="translate(103 138)"><g clip-path="url(#clip3)"><path d="M44.023-89.11C52.1803-89.11 59.3845-87.8465 65.6355-85.3195 71.8865-82.7925 77.3173-79.0907 81.928-74.214L70.889-59.451C67.0763-63.441 62.9755-66.4335 58.5865-68.4285 54.1975-70.4235 49.21-71.421 43.624-71.421 40.3433-71.421 37.6833-71.0663 35.644-70.357 33.6047-69.6477 32.1417-68.6723 31.255-67.431 30.3683-66.1897 29.925-64.771 29.925-63.175 29.925-61.313 30.7895-59.7392 32.5185-58.4535 34.2475-57.1678 37.0627-56.0817 40.964-55.195L55.727-51.87C64.505-49.8307 70.9333-46.8603 75.012-42.959 79.0907-39.0577 81.13-33.8707 81.13-27.398 81.13-21.1913 79.534-15.9378 76.342-11.6375 73.15-7.33717 68.761-4.10083 63.175-1.9285 57.589 0.243833 51.205 1.33 44.023 1.33 38.171 1.33 32.585 0.687167 27.265-0.5985 21.945-1.88417 17.157-3.724 12.901-6.118 8.645-8.512 5.054-11.2607 2.128-14.364L13.167-29.659C15.3837-27.0877 18.1102-24.8045 21.3465-22.8095 24.5828-20.8145 28.1295-19.2407 31.9865-18.088 35.8435-16.9353 39.767-16.359 43.757-16.359 46.8603-16.359 49.4538-16.6693 51.5375-17.29 53.6212-17.9107 55.1507-18.8417 56.126-20.083 57.1013-21.3243 57.589-22.7873 57.589-24.472 57.589-26.334 56.924-27.9078 55.594-29.1935 54.264-30.4792 51.737-31.5653 48.013-32.452L31.787-36.043C26.8217-37.1957 22.4105-38.7252 18.5535-40.6315 14.6965-42.5378 11.6597-45.1092 9.443-48.3455 7.22633-51.5818 6.118-55.6383 6.118-60.515 6.118-66.0123 7.62533-70.9112 10.64-75.2115 13.6547-79.5118 17.9993-82.9033 23.674-85.386 29.3487-87.8687 36.1317-89.11 44.023-89.11Z" fill="#FFFFFF" transform="translate(86.091 173)"/></g></g><text fill="#FFFFFF" font-family="Work Sans,Work Sans_MSFontService,sans-serif" font-weight="700" font-size="133" transform="translate(185.712 307)">S</text><path d="M96.5001 261C96.5001 187.822 155.822 128.5 229 128.5 302.178 128.5 361.5 187.822 361.5 261 361.5 334.178 302.178 393.5 229 393.5 155.822 393.5 96.5001 334.178 96.5001 261ZM109.18 261C109.18 327.175 162.825 380.82 229 380.82 295.175 380.82 348.82 327.175 348.82 261 348.82 194.825 295.175 141.18 229 141.18 162.825 141.18 109.18 194.825 109.18 261Z" stroke="#2A2669" stroke-width="1.33333" stroke-miterlimit="8" fill="#2A2669" fill-rule="evenodd"/></g></svg>
